<svg width="122" height="25" viewBox="0 0 122 25" fill="none" xmlns="http://www.w3.org/2000/svg">
<g clip-path="url(#clip0_201_2)">
<path d="M6.04182 9.16541C6.04182 10.3314 6.04182 11.7521 4.43575 12.3312C6.08043 12.8949 6.04182 14.0917 6.04182 15.3426V19.9755C6.04182 20.8558 6.39701 21.3886 7.03018 21.5198C7.1693 21.5668 7.31588 21.5877 7.46258 21.5816H9.00689V24.6702H6.45879C3.74081 24.6702 2.24284 23.1259 2.24284 20.2612V14.779C2.22356 14.4975 2.09946 14.2335 1.89504 14.0391C1.69061 13.8447 1.42072 13.734 1.13866 13.7288H0.474609V11.0186H1.13866C1.42635 11.0148 1.70154 10.9004 1.90713 10.6991C2.11273 10.4978 2.23294 10.2251 2.24284 9.93756V4.37807C2.24284 1.55971 3.70993 0.0385742 6.45879 0.0385742H9.03005V3.08085H7.48575C7.33887 3.08128 7.19296 3.10473 7.05334 3.15035C6.42018 3.3125 6.06499 3.83756 6.06499 4.69465L6.04182 9.16541Z" fill="white"/>
<path d="M11.0303 3.05762H22.9677V6.35471H15.2462V11.2733H21.3617V14.4469H15.2385V21.651H11.0303V3.05762Z" fill="white"/>
<path d="M24.969 4.81773C24.9555 4.44511 25.0528 4.07686 25.2487 3.75958C25.4445 3.44231 25.7301 3.19029 26.0693 3.03543C26.4085 2.88056 26.786 2.82982 27.154 2.88963C27.5221 2.94944 27.8641 3.1171 28.1368 3.3714C28.4095 3.62569 28.6006 3.95518 28.6859 4.31815C28.7712 4.68111 28.7469 5.06124 28.6161 5.41039C28.4852 5.75954 28.2538 6.06202 27.9509 6.27954C27.6481 6.49705 27.2875 6.61981 26.9148 6.63228H26.8453C26.6141 6.64692 26.3822 6.61575 26.1629 6.54056C25.9437 6.46537 25.7415 6.34764 25.5679 6.19411C25.3943 6.04059 25.2527 5.8543 25.1513 5.64594C25.0498 5.43757 24.9905 5.21122 24.9767 4.97988C24.9703 4.92608 24.9677 4.87189 24.969 4.81773ZM24.969 8.23836H28.7448V21.8437H24.9845L24.969 8.23836Z" fill="white"/>
<path d="M30.7441 5.6987H34.4814V7.853C34.9026 7.06227 35.542 6.40909 36.3236 5.97109C37.1051 5.53308 37.996 5.32866 38.8903 5.38212C41.5388 5.38212 43.4615 6.99592 43.4615 10.6791V19.3349H39.7706V11.2196C39.7706 9.37414 39.0525 8.49389 37.3846 8.49389C37.0321 8.4632 36.677 8.50243 36.3397 8.60934C36.0024 8.71625 35.6895 8.88873 35.419 9.11688C35.1486 9.34503 34.9258 9.62435 34.7636 9.93881C34.6013 10.2533 34.5028 10.5967 34.4736 10.9493C34.4543 11.1135 34.4543 11.2794 34.4736 11.4435V19.304H30.7441V5.6987Z" fill="white"/>
<path d="M45.4619 14.8986H48.9907C49.1528 16.1263 49.7628 16.829 51.3843 16.829C52.836 16.829 53.5077 16.2807 53.5077 15.3464C53.5077 14.4121 52.7356 14.0183 50.7589 13.7403C47.1375 13.1921 45.7399 12.1497 45.7399 9.49351C45.7399 6.65971 48.3343 5.25439 51.145 5.25439C54.1641 5.25439 56.4419 6.35085 56.7662 9.47807H53.2838C53.2616 9.23631 53.1917 9.00135 53.0781 8.78676C52.9646 8.57218 52.8096 8.38222 52.6223 8.22786C52.4349 8.0735 52.2188 7.9578 51.9864 7.88744C51.754 7.81708 51.51 7.79346 51.2685 7.81794H51.1527C49.9327 7.81794 49.2223 8.38933 49.2223 9.22326C49.2223 10.0572 49.8786 10.4201 51.8708 10.7058C55.2528 11.2154 57.1446 12.0725 57.1446 14.9835C57.1446 17.8945 55.0057 19.4543 51.4229 19.4543C47.8401 19.4543 45.5623 17.8405 45.4619 14.8986Z" fill="white"/>
<path d="M59.1445 5.55176H63.098L65.5148 14.7095L68.1633 5.55176H71.2519L73.6455 14.7095L76.1936 5.55176H79.815L75.5219 19.1571H71.8155L69.4991 10.6171L67.0205 19.1571H63.2678L59.1445 5.55176Z" fill="white"/>
<path d="M81.8224 12.5126V12.3119C81.782 11.425 81.9167 10.5389 82.2189 9.70415C82.5211 8.86941 82.9848 8.1024 83.5836 7.44697C84.1824 6.79154 84.9045 6.26054 85.7086 5.88433C86.5127 5.50811 87.383 5.29406 88.2699 5.25439C88.4475 5.25439 88.6328 5.25439 88.8104 5.25439C92.3392 5.25439 95.4432 7.30832 95.4432 12.2038V13.2462H85.6446C85.745 15.5008 86.965 16.7749 89.0189 16.7749C90.7871 16.7749 91.6133 16.0027 91.8527 14.8754H95.3814C94.9413 17.8173 92.594 19.4543 88.8799 19.4543C84.8107 19.4234 81.8224 16.8444 81.8224 12.5126ZM91.7755 10.8834C91.6442 8.82946 90.6095 7.8411 88.8104 7.8411C87.0113 7.8411 86.0075 8.98389 85.7218 10.8757L91.7755 10.8834Z" fill="white"/>
<path d="M97.4503 12.5126V12.3119C97.4099 11.4238 97.5452 10.5364 97.8483 9.70073C98.1515 8.86501 98.6166 8.09733 99.217 7.4417C99.8174 6.78607 100.541 6.25537 101.347 5.88003C102.153 5.50469 103.025 5.29208 103.913 5.25439C104.091 5.25439 104.276 5.25439 104.454 5.25439C107.982 5.25439 111.079 7.30832 111.079 12.2038V13.2462H101.273C101.373 15.5008 102.593 16.7749 104.647 16.7749C106.415 16.7749 107.241 16.0027 107.481 14.8754H111.009C110.577 17.8173 108.23 19.4543 104.516 19.4543C100.439 19.4234 97.4503 16.8444 97.4503 12.5126ZM107.403 10.8834C107.272 8.82946 106.237 7.8411 104.438 7.8411C102.639 7.8411 101.605 8.953 101.35 10.8834H107.403Z" fill="white"/>
<path d="M121.525 17.7325V20.7516H118.993C116.29 20.6666 114.846 19.2073 114.846 16.4661V9.57082H113.078V6.92234H114.846V3.95728H118.584V6.89145H121.441V9.53221H118.584V16.0955C118.584 16.9835 118.761 17.6939 120.128 17.6939L121.525 17.7325Z" fill="white"/>
</g>
<defs>
<clipPath id="clip0_201_2">
<rect width="121.051" height="24.6316" fill="white" transform="translate(0.474609 0.0385742)"/>
</clipPath>
</defs>
</svg>
